Coordinates
version=1
nRows=11
nColumns=40
inDegrees=yes

Units are S.I. units (second, meters, Newtons, ...)
If the header above contains a line with 'inDegrees', this indicates whether rotational values are in degrees (yes) or radians (no).

endheader
time	pelvis_tilt	pelvis_list	pelvis_rotation	pelvis_tx	pelvis_ty	pelvis_tz	hip_flexion_r	hip_adduction_r	hip_rotation_r	knee_angle_r	knee_angle_r_beta	ankle_angle_r	subtalar_angle_r	mtp_angle_r	hip_flexion_l	hip_adduction_l	hip_rotation_l	knee_angle_l	knee_angle_l_beta	ankle_angle_l	subtalar_angle_l	mtp_angle_l	lumbar_extension	lumbar_bending	lumbar_rotation	arm_flex_r	arm_add_r	arm_rot_r	elbow_flex_r	pro_sup_r	wrist_flex_r	wrist_dev_r	arm_flex_l	arm_add_l	arm_rot_l	elbow_flex_l	pro_sup_l	wrist_flex_l	wrist_dev_l
      0.00500000	     -4.52941032	     10.24679738	      4.56966249	     -0.83313415	      0.88845403	      0.23087772	     36.21493572	    -14.79618227	    -15.08232570	      9.42766314	      0.16454376	      2.32365409	      7.21963159	      0.00000000	    -13.70997064	      6.75621916	    -20.42459389	     12.93135876	      0.22569479	      9.16803503	     19.96747250	      0.00000000	      2.05442168	     -7.81222630	      5.32002975	     35.10496239	    -14.59386582	     35.10496239	     79.82148536	     43.15058428	      0.00000000	      0.00000000	     35.10496239	    -14.59386582	     35.10496239	     79.82148536	     43.15058428	      0.00000000	      0.00000000
      0.01000000	     -3.76616067	      9.01335049	      5.50674645	     -0.82444971	      0.89024062	      0.22898325	     34.22535752	    -14.03107090	    -15.36802917	      8.90480271	      0.15541813	      2.02900601	      4.95128371	      0.00000000	    -14.82608365	      5.05502456	    -19.60651597	     13.20071166	      0.23039588	      8.75990350	     19.83886490	      0.00000000	      1.27067995	     -6.23906778	      3.59028617	     35.16494518	    -14.59790591	     35.16494518	     79.72756047	     43.24869387	      0.00000000	      0.00000000	     35.16494518	    -14.59790591	     35.16494518	     79.72756047	     43.24869387	      0.00000000	      0.00000000
      0.01500000	     -3.66269299	      8.76850031	      5.74340164	     -0.81626067	      0.88977169	      0.22906500	     33.97988705	    -13.96152441	    -15.34555562	      9.72027609	      0.16965082	      2.21108533	      3.89692164	      0.00000000	    -15.30744451	      4.55765839	    -19.45788855	     13.45893295	      0.23490269	      8.26007337	     19.85690201	      0.00000000	      1.23887545	     -5.84870981	      3.20335674	     35.17771272	    -14.59876381	     35.17771272	     79.70773589	     43.26896410	      0.00000000	      0.00000000	     35.17771272	    -14.59876381	     35.17771272	     79.70773589	     43.26896410	      0.00000000	      0.00000000
      0.02000000	     -3.52892222	      8.55080101	      5.86806658	     -0.80810653	      0.88939084	      0.22946606	     33.69973364	    -13.82789803	    -15.19214143	     10.46680018	      0.18268013	      2.14596416	      3.14068782	      0.00000000	    -15.79550377	      4.09089896	    -19.37802138	     13.74359100	      0.23987091	      7.58939899	     19.69119694	      0.00000000	      1.39748723	     -5.53851590	      2.98386338	     35.18259665	    -14.59909178	     35.18259665	     79.70016825	     43.27666357	      0.00000000	      0.00000000	     35.18259665	    -14.59909178	     35.18259665	     79.70016825	     43.27666357	      0.00000000	      0.00000000
      0.02500000	     -3.07159801	      7.51476830	      6.35789106	     -0.79964462	      0.89029191	      0.22905403	     32.41950295	    -12.93872073	    -15.39943302	     10.37119303	      0.18101147	      1.79695707	      1.23046246	      0.00000000	    -16.33028723	      2.54663011	    -19.25839469	     14.44535228	      0.25211896	      7.21648292	     19.82508735	      0.00000000	      0.95671528	     -4.34765283	      1.62812271	     35.23147438	    -14.60236954	     35.23147438	     79.62481171	     43.35232240	      0.00000000	      0.00000000	     35.23147438	    -14.60236954	     35.23147438	     79.62481171	     43.35232240	      0.00000000	      0.00000000
      0.03000000	     -2.84911226	      7.06569432	      6.43196749	     -0.79124852	      0.89035073	      0.22976815	     31.77495819	    -12.34786082	    -14.96306130	     10.63862311	      0.18567900	      1.38346497	     -0.38258325	      0.00000000	    -16.79152322	      1.78133091	    -19.24352062	     14.90166797	      0.26008317	      6.54801397	     19.65841311	      0.00000000	      0.89091226	     -3.96440356	      1.03621389	     35.28209098	    -14.60575263	     35.28209098	     79.54769148	     43.42744942	      0.00000000	      0.00000000	     35.28209098	    -14.60575263	     35.28209098	     79.54769148	     43.42744942	      0.00000000	      0.00000000
      0.03500000	     -2.76842589	      6.88227170	      6.45145032	     -0.78302894	      0.89012544	      0.23069012	     31.53077077	    -12.11221462	    -14.95929287	     11.27642452	      0.19681074	      0.88196859	     -0.97305988	      0.00000000	    -17.00997021	      1.30555420	    -19.18717758	     15.48805795	      0.27031761	      5.65840611	     19.27187925	      0.00000000	      0.95652856	     -3.76172498	      0.93047271	     35.28759564	    -14.60611977	     35.28759564	     79.53936571	     43.43541240	      0.00000000	      0.00000000	     35.28759564	    -14.60611977	     35.28759564	     79.53936571	     43.43541240	      0.00000000	      0.00000000
      0.04000000	     -2.24336424	      5.57499982	      6.94030763	     -0.77436294	      0.89133706	      0.23011951	     30.04655531	    -10.82493091	    -15.72166950	     10.60847040	      0.18515274	     -0.84944190	     -2.51785899	      0.00000000	    -17.70752665	     -0.42904170	    -19.01568768	     15.95152598	      0.27840665	      5.12754291	     18.95424374	      0.00000000	      0.57230098	     -2.00673988	     -0.19794694	     35.33688233	    -14.60940114	     35.33688233	     79.46530359	     43.50505910	      0.00000000	      0.00000000	     35.33688233	    -14.60940114	     35.33688233	     79.46530359	     43.50505910	      0.00000000	      0.00000000
      0.04500000	     -1.75643269	      4.57505176	      7.41450185	     -0.76584599	      0.89247094	      0.22967195	     28.71019831	     -9.82693275	    -16.47916006	      9.93454129	      0.17339046	     -2.91271636	     -3.43567049	      0.00000000	    -18.26313134	     -1.90485799	    -18.87842585	     16.55625019	      0.28896108	      4.23336314	     18.74160168	      0.00000000	      0.20274835	     -0.73131037	     -1.31791587	     35.39091727	    -14.61298605	     35.39091727	     79.38510805	     43.57813195	      0.00000000	      0.00000000	     35.39091727	    -14.61298605	     35.39091727	     79.38510805	     43.57813195	      0.00000000	      0.00000000
      0.05000000	     -1.65061738	      4.39012599	      7.25922852	     -0.75764256	      0.89250979	      0.23101499	     28.48587625	     -9.49459156	    -16.90059171	     10.29689855	      0.17971478	     -4.09208725	     -3.68609409	      0.00000000	    -18.53397100	     -2.28976027	    -18.92378427	     17.07111370	      0.29794714	      3.15590281	     18.14145351	      0.00000000	      0.27441423	     -0.65929099	     -1.39758790	     35.39511040	    -14.61326374	     35.39511040	     79.37892384	     43.58368018	      0.00000000	      0.00000000	     35.39511040	    -14.61326374	     35.39511040	     79.37892384	     43.58368018	      0.00000000	      0.00000000
      0.05500000	     -1.47102114	      3.99321022	      7.22078191	     -0.74954329	      0.89308722	      0.23187961	     28.16815029	     -9.01554618	    -17.39464989	     10.75613762	      0.18773002	     -5.08154958	     -4.37608293	      0.00000000	    -18.77685217	     -2.91831322	    -18.90468688	     17.70878317	      0.30907657	      1.83634332	     17.28262340	      0.00000000	      0.15322725	     -0.20873596	     -1.67124239	     35.39960976	    -14.61356161	     35.39960976	     79.37229500	     43.58961105	      0.00000000	      0.00000000	     35.39960976	    -14.61356161	     35.39960976	     79.37229500	     43.58961105	      0.00000000	      0.00000000
